<svg width="186" height="62" viewBox="0 0 186 62" fill="none" xmlns="http://www.w3.org/2000/svg">
<g filter="url(#filter0_d_1_101)">
<mask id="path-1-inside-1_1_101" fill="white">
<path fill-rule="evenodd" clip-rule="evenodd" d="M162.628 11.5H170V38.45L162.688 50H162.628H23.7613H16V23.05L23.3314 11.5H23.7613H162.628Z"/>
</mask>
<path d="M170 11.5V10.5H171V11.5H170ZM170 38.45H171V38.7399L170.845 38.9849L170 38.45ZM162.688 50L163.533 50.5349L163.239 51H162.688V50ZM16 50V51H15V50H16ZM16 23.05H15V22.7594L15.1557 22.5141L16 23.05ZM23.3314 11.5L22.4871 10.9641L22.7817 10.5H23.3314V11.5ZM170 12.5H162.628V10.5H170V12.5ZM169 38.45V11.5H171V38.45H169ZM161.843 49.4651L169.155 37.9151L170.845 38.9849L163.533 50.5349L161.843 49.4651ZM162.628 49H162.688V51H162.628V49ZM23.7613 49H162.628V51H23.7613V49ZM16 49H23.7613V51H16V49ZM17 23.05V50H15V23.05H17ZM24.1757 12.0359L16.8443 23.5859L15.1557 22.5141L22.4871 10.9641L24.1757 12.0359ZM23.7613 12.5H23.3314V10.5H23.7613V12.5ZM162.628 12.5H23.7613V10.5H162.628V12.5Z" fill="white" mask="url(#path-1-inside-1_1_101)"/>
</g>
<defs>
<filter id="filter0_d_1_101" x="0" y="-4.5" width="186" height="70.5" filterUnits="userSpaceOnUse" color-interpolation-filters="sRGB">
<feFlood flood-opacity="0" result="BackgroundImageFix"/>
<feColorMatrix in="SourceAlpha" type="matrix" values="0 0 0 0 0 0 0 0 0 0 0 0 0 0 0 0 0 0 127 0" result="hardAlpha"/>
<feOffset/>
<feGaussianBlur stdDeviation="8"/>
<feComposite in2="hardAlpha" operator="out"/>
<feColorMatrix type="matrix" values="0 0 0 0 0.556863 0 0 0 0 0.890196 0 0 0 0 0.984314 0 0 0 1 0"/>
<feBlend mode="normal" in2="BackgroundImageFix" result="effect1_dropShadow_1_101"/>
<feBlend mode="normal" in="SourceGraphic" in2="effect1_dropShadow_1_101" result="shape"/>
</filter>
</defs>
</svg>
